<mxfile host="app.diagrams.net" agent="Mozilla/5.0 (Windows NT 10.0; Win64; x64; rv:129.0) Gecko/20100101 Firefox/129.0" version="24.7.12">
  <diagram name="Page-1" id="z-KV74N64UmRG-ffvRCr">
    <mxGraphModel dx="1050" dy="558" grid="1" gridSize="10" guides="1" tooltips="1" connect="1" arrows="1" fold="1" page="1" pageScale="1" pageWidth="850" pageHeight="1100" math="0" shadow="0">
      <root>
        <mxCell id="0" />
        <mxCell id="1" parent="0" />
        <mxCell id="OUHNbVGp1KGHLPUU9zu2-1" value="Pradžia" style="ellipse;whiteSpace=wrap;html=1;" vertex="1" parent="1">
          <mxGeometry x="305" y="30" width="115" height="60" as="geometry" />
        </mxCell>
        <mxCell id="OUHNbVGp1KGHLPUU9zu2-3" value="" style="shape=flexArrow;endArrow=classic;html=1;rounded=0;" edge="1" parent="1">
          <mxGeometry width="50" height="50" relative="1" as="geometry">
            <mxPoint x="362" y="90" as="sourcePoint" />
            <mxPoint x="362" y="150" as="targetPoint" />
            <Array as="points" />
          </mxGeometry>
        </mxCell>
        <mxCell id="OUHNbVGp1KGHLPUU9zu2-4" value="Įvesti a, b" style="shape=parallelogram;perimeter=parallelogramPerimeter;whiteSpace=wrap;html=1;fixedSize=1;" vertex="1" parent="1">
          <mxGeometry x="300" y="150" width="120" height="60" as="geometry" />
        </mxCell>
        <mxCell id="OUHNbVGp1KGHLPUU9zu2-6" value="" style="shape=flexArrow;endArrow=classic;html=1;rounded=0;" edge="1" parent="1">
          <mxGeometry width="50" height="50" relative="1" as="geometry">
            <mxPoint x="359.5" y="210" as="sourcePoint" />
            <mxPoint x="359.5" y="270" as="targetPoint" />
          </mxGeometry>
        </mxCell>
        <mxCell id="OUHNbVGp1KGHLPUU9zu2-7" value="X = a + b" style="rounded=0;whiteSpace=wrap;html=1;" vertex="1" parent="1">
          <mxGeometry x="302.5" y="270" width="120" height="60" as="geometry" />
        </mxCell>
        <mxCell id="OUHNbVGp1KGHLPUU9zu2-9" value="" style="shape=flexArrow;endArrow=classic;html=1;rounded=0;width=14;endSize=5.67;" edge="1" parent="1">
          <mxGeometry width="50" height="50" relative="1" as="geometry">
            <mxPoint x="359.5" y="330" as="sourcePoint" />
            <mxPoint x="359.5" y="380" as="targetPoint" />
          </mxGeometry>
        </mxCell>
        <mxCell id="OUHNbVGp1KGHLPUU9zu2-10" value="Išvesti X" style="shape=parallelogram;perimeter=parallelogramPerimeter;whiteSpace=wrap;html=1;fixedSize=1;" vertex="1" parent="1">
          <mxGeometry x="290" y="380" width="120" height="60" as="geometry" />
        </mxCell>
        <mxCell id="OUHNbVGp1KGHLPUU9zu2-11" value="Pradžia" style="ellipse;whiteSpace=wrap;html=1;aspect=fixed;" vertex="1" parent="1">
          <mxGeometry x="580" y="10" width="80" height="80" as="geometry" />
        </mxCell>
        <mxCell id="OUHNbVGp1KGHLPUU9zu2-12" value="" style="shape=flexArrow;endArrow=classic;html=1;rounded=0;" edge="1" parent="1">
          <mxGeometry width="50" height="50" relative="1" as="geometry">
            <mxPoint x="619.5" y="90" as="sourcePoint" />
            <mxPoint x="619.5" y="140" as="targetPoint" />
          </mxGeometry>
        </mxCell>
        <mxCell id="OUHNbVGp1KGHLPUU9zu2-13" value="Įvesti a" style="shape=parallelogram;perimeter=parallelogramPerimeter;whiteSpace=wrap;html=1;fixedSize=1;" vertex="1" parent="1">
          <mxGeometry x="560" y="140" width="120" height="60" as="geometry" />
        </mxCell>
        <mxCell id="OUHNbVGp1KGHLPUU9zu2-16" value="" style="shape=flexArrow;endArrow=classic;html=1;rounded=0;" edge="1" parent="1">
          <mxGeometry width="50" height="50" relative="1" as="geometry">
            <mxPoint x="630" y="200" as="sourcePoint" />
            <mxPoint x="610" y="270" as="targetPoint" />
          </mxGeometry>
        </mxCell>
        <mxCell id="OUHNbVGp1KGHLPUU9zu2-20" value="Patikrinti ar a/2" style="rhombus;whiteSpace=wrap;html=1;" vertex="1" parent="1">
          <mxGeometry x="570" y="270" width="90" height="80" as="geometry" />
        </mxCell>
        <mxCell id="OUHNbVGp1KGHLPUU9zu2-22" value="" style="shape=flexArrow;endArrow=classic;html=1;rounded=0;" edge="1" parent="1">
          <mxGeometry width="50" height="50" relative="1" as="geometry">
            <mxPoint x="620" y="350" as="sourcePoint" />
            <mxPoint x="600" y="400" as="targetPoint" />
          </mxGeometry>
        </mxCell>
        <mxCell id="OUHNbVGp1KGHLPUU9zu2-23" value="Jei dalijasi, išvesti &quot;Lyginis&quot;, jei ne - &quot;ne;yginis&quot;" style="shape=parallelogram;perimeter=parallelogramPerimeter;whiteSpace=wrap;html=1;fixedSize=1;" vertex="1" parent="1">
          <mxGeometry x="540" y="400" width="120" height="60" as="geometry" />
        </mxCell>
        <mxCell id="OUHNbVGp1KGHLPUU9zu2-27" value="" style="shape=flexArrow;endArrow=classic;html=1;rounded=0;width=14;endSize=6.27;" edge="1" parent="1" target="OUHNbVGp1KGHLPUU9zu2-28">
          <mxGeometry width="50" height="50" relative="1" as="geometry">
            <mxPoint x="349.5" y="440" as="sourcePoint" />
            <mxPoint x="349.5" y="490" as="targetPoint" />
            <Array as="points" />
          </mxGeometry>
        </mxCell>
        <mxCell id="OUHNbVGp1KGHLPUU9zu2-28" value="Pabaiga" style="ellipse;whiteSpace=wrap;html=1;" vertex="1" parent="1">
          <mxGeometry x="289.5" y="490" width="120" height="80" as="geometry" />
        </mxCell>
        <mxCell id="OUHNbVGp1KGHLPUU9zu2-32" value="" style="shape=flexArrow;endArrow=classic;html=1;rounded=0;" edge="1" parent="1">
          <mxGeometry width="50" height="50" relative="1" as="geometry">
            <mxPoint x="590" y="460" as="sourcePoint" />
            <mxPoint x="590" y="520" as="targetPoint" />
          </mxGeometry>
        </mxCell>
        <mxCell id="OUHNbVGp1KGHLPUU9zu2-33" value="Pabaiga" style="ellipse;whiteSpace=wrap;html=1;" vertex="1" parent="1">
          <mxGeometry x="540" y="520" width="120" height="80" as="geometry" />
        </mxCell>
      </root>
    </mxGraphModel>
  </diagram>
</mxfile>
